<svg width="48" height="48" viewBox="0 0 48 48" fill="none" xmlns="http://www.w3.org/2000/svg">
<g clip-path="url(#clip0_0_3)">
<path d="M19.479 46.479C18.884 46.538 18.313 46.241 18.038 45.709C17.623 44.906 16.976 44.375 16.443 43.686C15.162 42.029 14.177 40.251 13.032 38.497C12.836 38.197 12.637 37.889 12.551 37.542C12.462 37.183 12.498 36.806 12.531 36.438C12.589 35.798 12.473 35.164 12.314 34.541C11.93 33.031 9.93801 31.899 9.04101 30.625C7.79301 28.851 7.65901 26.55 7.56801 24.383C7.49801 22.722 7.57001 20.87 7.53601 19.16C7.52801 18.738 7.69801 18.344 8.00801 18.057C8.86701 17.263 9.85201 16.001 10.017 14.866C10.349 12.576 10.486 10.213 11.393 8.084C13.072 4.147 17.233 1.171 21.476 0.609C26.666 -0.0779999 32.405 2.33 35.961 6.173C36.547 6.806 37.085 7.488 37.505 8.242C38.255 9.586 38.609 11.113 38.842 12.634C39.043 13.943 38.872 15.331 38.897 16.663C38.906 17.121 39.268 17.526 39.64 17.794C40.123 18.142 40.424 18.769 40.518 19.375C40.643 20.184 40.457 21.004 40.317 21.811C40.067 23.254 39.965 24.723 40.014 26.188C40.064 27.687 40.213 29.372 39.223 30.5C38.712 31.082 37.765 31.482 37.296 32.099C36.224 33.508 36.85 35.534 36.309 37.22C36.089 37.907 35.644 38.496 35.207 39.07C33.628 41.145 32.283 43.272 30.704 45.347C30.345 45.819 29.826 46.429 29.233 46.413C26.108 46.257 22.651 46.166 19.479 46.479Z" fill="#D03827"/>
<path d="M19.328 46.987C18.597 46.987 17.93 46.591 17.594 45.939C17.355 45.475 17.017 45.102 16.66 44.707C16.451 44.477 16.242 44.244 16.048 43.992C15.16 42.845 14.403 41.625 13.671 40.445C13.325 39.887 12.978 39.328 12.613 38.77C12.407 38.454 12.174 38.095 12.065 37.663C11.958 37.227 11.997 36.794 12.031 36.411C12.088 35.789 11.961 35.181 11.83 34.664C11.629 33.875 10.832 33.136 10.06 32.421C9.54101 31.941 9.00601 31.443 8.63201 30.913C7.25901 28.963 7.15301 26.435 7.06801 24.404C7.02801 23.439 7.03501 22.4 7.04201 21.395C7.04701 20.644 7.05201 19.894 7.03701 19.169C7.02501 18.611 7.25601 18.071 7.66901 17.69C8.43401 16.984 9.37701 15.802 9.52301 14.794C9.59001 14.331 9.65 13.865 9.709 13.398C9.943 11.554 10.185 9.648 10.935 7.888C12.662 3.838 16.873 0.714 21.413 0.113C26.545 -0.564 32.537 1.732 36.331 5.833C37.019 6.576 37.547 7.284 37.944 7.998C38.795 9.521 39.136 11.235 39.34 12.558C39.478 13.46 39.449 14.387 39.421 15.284C39.406 15.744 39.392 16.202 39.4 16.653C39.404 16.871 39.61 17.153 39.936 17.389C40.488 17.787 40.892 18.501 41.015 19.299C41.138 20.088 41 20.855 40.867 21.596L40.813 21.896C40.57 23.304 40.47 24.743 40.518 26.171L40.531 26.516C40.586 27.979 40.649 29.638 39.603 30.829C39.323 31.148 38.955 31.403 38.599 31.65C38.239 31.9 37.899 32.136 37.699 32.4C37.158 33.11 37.124 34.065 37.087 35.076C37.06 35.835 37.03 36.62 36.79 37.371C36.54 38.147 36.046 38.798 35.61 39.371C34.825 40.402 34.084 41.468 33.366 42.498C32.646 43.533 31.901 44.604 31.107 45.648C30.63 46.274 30.041 46.911 29.265 46.911C29.251 46.911 29.237 46.911 29.223 46.911C26.413 46.771 22.785 46.655 19.529 46.977C19.461 46.983 19.395 46.987 19.328 46.987ZM19.479 46.479H19.489H19.479ZM23.254 0.994C22.675 0.994 22.104 1.031 21.543 1.105C17.406 1.652 13.423 4.603 11.855 8.281C11.16 9.912 10.927 11.749 10.702 13.524C10.642 13.997 10.582 14.468 10.514 14.937C10.329 16.204 9.275 17.569 8.348 18.424C8.142 18.614 8.032 18.872 8.037 19.149C8.051 19.883 8.04701 20.642 8.04201 21.401C8.03501 22.394 8.02801 23.422 8.06801 24.363C8.14701 26.262 8.24701 28.627 9.45101 30.337C9.76401 30.782 10.238 31.222 10.741 31.688C11.618 32.501 12.525 33.343 12.799 34.418C12.951 35.016 13.097 35.729 13.029 36.482C12.997 36.835 12.968 37.15 13.036 37.421C13.103 37.69 13.28 37.961 13.451 38.224C13.819 38.787 14.171 39.353 14.52 39.917C15.272 41.128 15.983 42.272 16.838 43.38C17.017 43.611 17.21 43.824 17.401 44.036C17.785 44.461 18.182 44.9 18.481 45.479C18.659 45.823 19.028 46.031 19.429 45.98C22.731 45.655 26.253 45.762 29.26 45.911C29.263 45.911 29.267 45.911 29.27 45.911C29.648 45.911 30.144 45.258 30.308 45.042C31.089 44.015 31.829 42.953 32.543 41.926C33.266 40.887 34.014 39.813 34.812 38.765C35.218 38.231 35.638 37.678 35.835 37.065C36.033 36.446 36.059 35.762 36.085 35.039C36.126 33.917 36.168 32.757 36.9 31.795C37.196 31.405 37.618 31.112 38.026 30.829C38.346 30.606 38.649 30.396 38.848 30.169C39.631 29.277 39.578 27.893 39.528 26.553L39.515 26.204C39.465 24.707 39.57 23.2 39.826 21.725L39.88 21.417C40.005 20.728 40.122 20.075 40.025 19.451C39.943 18.92 39.684 18.44 39.349 18.198C38.999 17.945 38.412 17.412 38.398 16.671C38.389 16.202 38.404 15.728 38.419 15.251C38.446 14.4 38.474 13.52 38.35 12.708C38.16 11.469 37.842 9.868 37.07 8.484C36.712 7.84 36.229 7.195 35.595 6.511C32.429 3.09 27.649 0.994 23.254 0.994Z" fill="#010101"/>
<path d="M38.104 25.557C36.981 20.952 36.454 16.028 36.563 11.289C35.356 9.372 33.702 7.738 31.697 6.685C30.879 6.255 29.743 5.968 29.135 6.664C28.864 6.974 28.784 7.402 28.71 7.807C28.384 9.568 27.962 11.311 27.445 13.026C27.211 13.802 26.9 14.644 26.189 15.032C25.754 15.269 25.239 15.293 24.744 15.312C23.99 15.341 23.235 15.369 22.481 15.398C22.313 15.404 22.133 15.407 21.993 15.314C21.837 15.21 21.774 15.015 21.721 14.835C20.919 12.105 20.029 9.4 19.054 6.727C18.968 6.49 18.839 6.218 18.59 6.178C18.442 6.154 18.296 6.224 18.163 6.293C16.048 7.393 14.07 9.022 12.412 10.735C12.752 15.361 11.848 20.565 9.937 24.792C10.174 25.01 10.397 25.258 10.624 25.499C14.311 30.846 15.884 36.829 18.512 42.776C18.675 43.145 18.94 43.539 19.34 43.487C22.701 43.372 26.152 43.178 29.513 43.063C31.589 38.505 34.161 33.579 36.16 28.986L36.156 28.985C36.927 27.913 37.582 26.758 38.104 25.557Z" fill="#FEBF10"/>
<path d="M13.826 23.27C13.46 24.388 13.459 25.623 13.824 26.741C15.422 27.343 17.142 27.621 18.848 27.554C19.228 27.539 19.623 27.503 19.953 27.313C20.418 27.046 20.778 26.243 20.947 25.735" fill="#16B7B8"/>
<path d="M27.207 25.601C27.432 26.19 27.82 26.277 28.175 26.799C28.253 26.913 28.336 27.028 28.453 27.102C28.557 27.168 28.68 27.197 28.8 27.222C30.407 27.562 32.091 27.536 33.687 27.147C33.932 27.087 34.197 27.004 34.335 26.792C34.418 26.664 34.442 26.507 34.462 26.355C34.633 25.063 34.425 24.191 34.424 22.888" fill="#16B7B8"/>
<path d="M38.589 25.438C37.483 20.9 36.955 16.01 37.063 11.3C37.065 11.201 37.039 11.105 36.986 11.022C35.678 8.945 33.929 7.293 31.929 6.243C30.606 5.548 29.418 5.581 28.758 6.336C28.397 6.75 28.297 7.286 28.218 7.717C27.898 9.449 27.477 11.188 26.966 12.883C26.765 13.552 26.503 14.292 25.949 14.593C25.606 14.78 25.137 14.797 24.645 14.816L22.462 14.899C22.411 14.901 22.292 14.905 22.28 14.909C22.252 14.876 22.213 14.744 22.198 14.695C21.397 11.967 20.497 9.229 19.521 6.558C19.452 6.365 19.239 5.777 18.669 5.685C18.345 5.631 18.075 5.774 17.931 5.85C15.97 6.87 13.937 8.438 12.051 10.387C11.952 10.49 11.902 10.629 11.911 10.772C12.245 15.316 11.336 20.48 9.47899 24.585C9.39299 24.781 9.43999 25.013 9.59999 25.159C9.81899 25.36 10.025 25.592 10.235 25.815C12.723 29.432 14.218 33.3 15.796 37.393C16.501 39.22 17.23 41.11 18.055 42.977C18.432 43.833 18.945 43.993 19.247 43.993C19.288 43.993 19.324 43.99 19.356 43.986C21.04 43.928 22.745 43.851 24.451 43.773C26.151 43.696 27.851 43.619 29.529 43.562C29.719 43.555 29.888 43.442 29.967 43.269C30.867 41.292 31.882 39.204 32.863 37.184C34.144 34.547 35.467 31.821 36.597 29.229C37.36 28.16 38.024 26.995 38.561 25.757C38.605 25.655 38.615 25.544 38.589 25.438ZM18.395 6.736C18.417 6.724 18.479 6.692 18.474 6.667C18.494 6.692 18.532 6.755 18.583 6.899C19.552 9.551 20.445 12.269 21.24 14.975C21.3 15.178 21.399 15.519 21.716 15.73C21.993 15.915 22.308 15.901 22.5 15.898L24.762 15.812C25.26 15.793 25.879 15.77 26.428 15.471C27.273 15.011 27.646 14.093 27.923 13.17C28.444 11.44 28.874 9.666 29.2 7.898C29.264 7.555 29.33 7.201 29.512 6.994C29.904 6.542 30.808 6.785 31.464 7.128C32.995 7.932 34.353 9.141 35.47 10.625C34.722 11.488 34.34 12.521 34.272 13.955C34.238 14.644 34.173 15.374 34.107 16.121C33.919 18.237 33.725 20.427 34.136 22.367C34.167 22.514 34.192 22.666 34.168 22.763C34.129 22.867 33.862 23.02 33.337 23.232C27.1 25.757 19.807 25.594 14.188 22.834C15.823 18.486 14.578 14.264 13.247 10.62C14.921 8.967 16.688 7.624 18.395 6.736ZM33.98 24.22C34.03 24.92 34.07 25.52 33.96 26.29C33.96 26.35 33.94 26.48 33.92 26.52C33.9 26.55 33.82 26.6 33.57 26.66C32.05 27.03 30.43 27.06 28.9 26.73C28.85 26.72 28.75 26.7 28.72 26.68C28.68 26.66 28.62 26.56 28.59 26.52C28.41 26.25 28.22 26.08 28.07 25.94C27.986 25.865 27.92 25.801 27.859 25.733C29.867 25.438 31.854 24.911 33.75 24.144C33.817 24.117 33.895 24.082 33.969 24.05C33.973 24.105 33.977 24.166 33.98 24.22ZM14.178 23.925C16.112 24.819 18.219 25.426 20.408 25.744C20.203 26.294 19.926 26.752 19.704 26.879C19.463 27.018 19.126 27.042 18.829 27.054C17.285 27.122 15.696 26.874 14.231 26.357C14.014 25.566 14.004 24.727 14.178 23.925ZM16.729 37.033C16.075 35.336 15.432 33.679 14.73 32.057C14.862 32.234 14.984 32.416 15.131 32.583C15.471 32.973 15.855 33.332 16.225 33.68C17.047 34.452 17.824 35.181 18.08 36.149L18.129 36.337C18.3 36.999 18.525 37.848 19.083 38.393C19.083 38.406 19.077 38.418 19.077 38.431C19.125 39.394 19.012 40.352 18.74 41.279L18.702 41.407C18.672 41.506 18.642 41.613 18.613 41.72C17.945 40.151 17.323 38.571 16.729 37.033ZM24.405 42.773C22.796 42.847 21.183 42.918 19.552 42.977C19.549 42.927 19.546 42.877 19.528 42.829C19.412 42.523 19.533 42.121 19.66 41.694L19.699 41.561C19.957 40.684 20.078 39.782 20.079 38.872C21.362 39.147 22.667 39.26 23.951 39.26C25.373 39.26 26.76 39.132 28.061 38.972C28.063 39.016 28.063 39.059 28.077 39.103C28.438 40.242 28.738 41.411 28.987 42.581C27.471 42.636 25.939 42.704 24.405 42.773ZM31.965 36.746C31.218 38.285 30.463 39.854 29.74 41.395C29.53 40.522 29.3 39.652 29.03 38.799L28.984 38.696C28.976 38.683 28.964 38.675 28.955 38.663C28.986 38.614 29.028 38.573 29.041 38.514C29.176 37.906 29.393 37.442 29.623 36.951C29.796 36.581 29.976 36.199 30.138 35.726C30.269 35.346 30.405 34.98 30.624 34.694C30.89 34.346 31.293 34.096 31.722 33.831L31.893 33.725C32.751 33.187 33.559 32.544 34.319 31.829C33.554 33.467 32.754 35.122 31.965 36.746ZM31.362 32.878L31.195 32.982C30.71 33.283 30.207 33.594 29.831 34.087C29.52 34.491 29.346 34.958 29.193 35.401C29.047 35.823 28.88 36.18 28.718 36.527C28.515 36.959 28.307 37.403 28.152 37.954C25.592 38.278 22.652 38.489 19.976 37.839C19.498 37.638 19.266 36.741 19.097 36.086L19.046 35.893C18.716 34.649 17.797 33.786 16.908 32.952C16.539 32.605 16.19 32.278 15.882 31.926C15.394 31.367 15.003 30.736 14.59 30.066C14.464 29.861 14.337 29.656 14.208 29.453C13.307 28.043 12.237 26.491 11.02 25.189C11.007 25.17 10.996 25.151 10.983 25.132C10.944 25.077 10.896 25.032 10.842 24.998C10.739 24.892 10.643 24.773 10.537 24.671C12.074 21.136 12.938 16.893 12.972 12.902C13.954 16.011 14.535 19.444 13.091 22.879C13 23.095 13.079 23.336 13.263 23.47C12.971 24.592 12.987 25.793 13.347 26.896C13.394 27.041 13.504 27.155 13.647 27.209C15.139 27.772 16.759 28.064 18.361 28.064C18.53 28.064 18.699 28.06 18.868 28.054C19.314 28.035 19.785 27.986 20.201 27.746C20.874 27.36 21.278 26.32 21.421 25.892C21.423 25.886 21.421 25.88 21.423 25.875C22.29 25.965 23.166 26.014 24.047 26.014C24.956 26.014 25.869 25.961 26.78 25.866C26.949 26.257 27.185 26.484 27.389 26.67C27.519 26.79 27.649 26.91 27.759 27.08C27.859 27.23 27.989 27.4 28.189 27.53C28.359 27.63 28.539 27.68 28.699 27.71C29.479 27.88 30.279 27.96 31.079 27.96C31.999 27.96 32.919 27.85 33.799 27.63C34.029 27.58 34.489 27.46 34.749 27.06C34.899 26.83 34.939 26.58 34.959 26.42C35.069 25.55 35.029 24.87 34.979 24.15C34.964 23.912 34.95 23.651 34.941 23.389C35.028 23.276 35.101 23.152 35.137 23.006C35.21 22.71 35.169 22.426 35.114 22.161C34.733 20.366 34.921 18.253 35.102 16.209C35.169 15.448 35.236 14.705 35.269 14.004C35.322 12.928 35.579 12.14 36.059 11.49C35.971 16.165 36.495 21.003 37.578 25.51C36.195 28.618 33.992 31.23 31.362 32.878Z" fill="#010101"/>
</g>
<defs>
<clipPath id="clip0_0_3">
<rect width="48" height="48" fill="white"/>
</clipPath>
</defs>
</svg>
